<?xml version="1.0" standalone="no"?>
<!DOCTYPE svg PUBLIC "-//W3C//DTD SVG 20010904//EN"
 "http://www.w3.org/TR/2001/REC-SVG-20010904/DTD/svg10.dtd">
<svg version="1.0" xmlns="http://www.w3.org/2000/svg"
 width="512.000000pt" height="512.000000pt" viewBox="0 0 512.000000 512.000000"
 preserveAspectRatio="xMidYMid meet">

<g transform="translate(0.000000,512.000000) scale(0.100000,-0.100000)"
fill="#000000" stroke="none">
<path d="M2315 4976 c-16 -7 -61 -41 -99 -75 -54 -47 -76 -61 -101 -61 -52 0
-130 -28 -186 -66 -89 -62 -144 -81 -249 -86 -133 -7 -204 -45 -270 -147 l-15
-23 -59 17 c-87 25 -257 17 -348 -17 -208 -78 -344 -230 -356 -398 l-5 -70
-67 -68 c-58 -58 -69 -74 -79 -120 -6 -29 -11 -63 -11 -75 -1 -29 -14 -45 -77
-90 -106 -77 -229 -234 -298 -379 -54 -113 -61 -216 -26 -344 6 -22 11 -94 11
-161 0 -110 -3 -131 -34 -230 -18 -59 -37 -126 -40 -148 -9 -54 11 -450 25
-500 7 -25 29 -57 60 -87 27 -26 49 -53 49 -61 0 -43 34 -117 76 -165 40 -45
48 -63 60 -123 17 -88 41 -122 113 -158 68 -35 74 -41 98 -106 14 -39 29 -57
67 -82 85 -58 314 -114 404 -99 58 9 158 63 191 103 17 20 33 35 36 32 2 -3
-7 -55 -20 -115 -33 -139 -42 -267 -25 -329 l13 -46 -60 -77 c-33 -42 -65 -86
-70 -97 -18 -33 -26 -111 -18 -180 10 -97 51 -139 170 -172 46 -13 422 -35
610 -36 79 0 133 21 197 79 20 18 56 38 80 44 98 25 168 74 168 119 0 9 16 32
35 51 49 48 69 105 61 177 -3 32 -10 105 -15 163 -9 111 -26 159 -82 231 -37
48 -45 100 -25 177 31 124 105 220 205 269 49 25 68 28 151 28 83 0 102 -3
151 -28 100 -49 174 -145 205 -269 20 -77 12 -129 -25 -177 -56 -72 -73 -120
-82 -231 -5 -58 -12 -131 -15 -163 -8 -72 12 -129 61 -177 19 -19 35 -42 35
-51 0 -45 70 -94 168 -119 24 -6 60 -26 80 -44 64 -58 118 -79 197 -79 188 1
564 23 610 36 116 33 159 75 170 166 7 65 -1 154 -18 186 -6 11 -37 55 -70 97
-60 77 -60 78 -49 117 24 78 17 145 -45 436 -6 29 -5 29 38 -17 26 -27 70 -59
104 -75 52 -24 71 -28 145 -26 132 2 318 59 377 115 12 12 28 37 34 57 19 59
37 79 98 111 74 37 98 71 115 159 12 60 20 78 60 123 42 47 76 122 76 165 0 7
22 35 49 62 30 30 54 65 61 88 13 48 33 445 24 496 -3 21 -21 88 -40 149 -31
100 -34 122 -34 232 0 66 5 138 11 160 35 128 28 231 -26 344 -69 146 -193
303 -298 378 -64 46 -77 61 -77 90 0 13 -5 47 -11 76 -10 46 -21 62 -79 120
l-67 68 -5 70 c-12 166 -140 312 -343 392 -103 40 -266 51 -361 23 l-59 -17
-15 23 c-66 102 -137 140 -270 147 -105 5 -160 24 -249 86 -56 38 -134 66
-186 66 -25 0 -48 14 -106 65 -112 99 -163 107 -270 40 -31 -19 -62 -35 -69
-35 -7 0 -38 16 -71 36 -66 41 -128 52 -174 30z m135 -136 c51 -31 75 -40 110
-40 35 0 59 9 110 40 36 22 71 40 77 40 7 0 42 -26 77 -59 77 -69 119 -91 192
-98 55 -6 107 -32 128 -65 11 -18 2 -40 -39 -96 -29 -41 -49 -131 -41 -189 8
-58 29 -97 87 -158 45 -47 47 -53 34 -71 -21 -28 -19 -45 16 -110 26 -51 30
-66 26 -110 -6 -60 -44 -142 -91 -198 l-33 -40 -7 67 c-3 37 -11 79 -17 94 -6
15 -12 51 -13 80 -4 69 -40 123 -98 152 -45 21 -106 26 -143 12 -14 -6 -31 0
-59 18 -49 32 -137 36 -179 8 -26 -17 -28 -17 -54 0 -42 28 -130 24 -179 -8
-32 -21 -44 -24 -64 -17 -41 16 -116 4 -158 -25 -50 -35 -74 -79 -78 -141 -1
-28 -7 -64 -13 -79 -6 -15 -14 -57 -17 -94 l-7 -67 -33 40 c-49 58 -84 135
-91 197 -5 50 -2 62 26 111 34 62 37 82 16 110 -13 18 -11 24 34 71 58 61 79
100 87 158 8 58 -12 148 -41 189 -41 56 -50 78 -39 96 21 33 73 59 128 65 73
7 115 29 192 98 35 33 70 59 77 59 6 0 41 -18 77 -40z m-553 -302 c45 -69 60
-128 43 -173 -6 -16 -31 -50 -54 -75 -60 -65 -76 -98 -74 -162 1 -30 -6 -71
-15 -93 -9 -22 -16 -66 -17 -97 0 -118 58 -225 203 -375 109 -112 127 -122
267 -145 99 -16 521 -16 620 0 140 23 158 33 267 145 154 158 210 269 201 396
-3 39 -14 83 -26 107 -14 27 -17 45 -11 55 24 38 1 96 -67 169 -23 25 -48 59
-54 75 -17 45 -2 104 43 173 34 52 45 62 62 57 11 -4 65 -10 120 -15 115 -9
140 -17 176 -56 53 -58 61 -85 49 -182 -21 -177 -58 -296 -127 -403 -16 -25
-16 -28 0 -53 22 -33 60 -34 92 -2 34 34 82 133 104 218 17 62 51 261 51 296
0 18 99 42 174 42 196 0 390 -118 441 -267 16 -45 14 -49 -63 -153 -173 -233
-323 -350 -451 -350 -61 0 -91 -19 -91 -56 0 -40 25 -54 95 -54 152 0 325 118
495 338 30 39 57 71 60 72 3 0 31 -25 62 -55 52 -50 57 -59 63 -112 10 -83 27
-115 81 -159 147 -118 242 -233 307 -371 28 -59 32 -79 32 -148 0 -44 -7 -110
-15 -147 -14 -67 -14 -67 -45 -61 -16 3 -84 23 -150 45 -218 70 -348 167 -412
305 -39 84 -62 102 -99 78 -34 -22 -31 -68 11 -152 83 -165 298 -304 580 -373
50 -12 93 -27 97 -34 4 -6 8 -34 8 -62 0 -29 12 -92 26 -140 54 -181 53 -171
45 -368 -4 -103 -10 -188 -13 -191 -8 -9 -118 33 -223 84 -113 56 -216 130
-268 193 -37 44 -87 141 -87 167 0 42 -73 68 -100 36 -31 -37 18 -170 100
-272 79 -100 246 -207 437 -283 l81 -32 -28 -44 c-15 -25 -31 -64 -34 -89 -5
-32 -18 -57 -50 -92 -57 -63 -68 -86 -81 -163 -10 -65 -10 -65 -64 -94 l-53
-28 -34 18 c-56 31 -133 103 -156 147 -17 34 -20 53 -15 108 7 77 -9 103 -60
97 -38 -4 -55 -44 -55 -125 0 -114 82 -237 204 -306 33 -19 38 -26 33 -47 -4
-14 -12 -34 -20 -46 -17 -26 -141 -68 -252 -85 -81 -12 -82 -12 -140 17 -32
16 -57 34 -56 39 1 6 29 26 62 45 62 36 77 56 66 90 -17 53 -65 47 -168 -22
l-58 -39 -42 25 c-49 29 -87 62 -87 77 0 17 48 56 82 65 60 17 74 77 26 107
-29 19 -107 -12 -162 -65 -63 -60 -75 -59 -157 20 -50 49 -59 64 -59 92 0 77
106 240 155 240 13 0 29 -10 39 -24 31 -49 77 -42 146 20 47 42 73 89 91 159
15 60 0 134 -42 200 l-30 48 29 31 c46 48 55 74 62 176 7 91 10 100 65 206 70
135 70 162 0 230 -37 37 -43 50 -50 101 -8 70 -25 111 -55 138 -27 24 -54 76
-69 132 -13 47 -40 68 -77 59 -23 -6 -40 -44 -46 -106 -4 -32 -69 -77 -238
-164 -206 -106 -369 -144 -500 -117 -31 6 -127 47 -218 93 l-164 83 -108 0
-108 0 -164 -83 c-91 -46 -187 -87 -218 -93 -128 -27 -292 11 -490 112 -165
84 -244 138 -248 169 -6 62 -23 100 -46 106 -37 9 -64 -12 -77 -59 -15 -56
-42 -108 -69 -132 -30 -27 -47 -68 -55 -140 -7 -50 -13 -64 -42 -90 -41 -35
-63 -74 -63 -109 0 -14 25 -73 56 -132 54 -103 57 -113 64 -204 7 -102 16
-127 62 -176 l29 -31 -30 -48 c-42 -66 -57 -140 -42 -200 18 -70 44 -117 91
-159 69 -62 115 -69 146 -20 24 36 56 30 99 -17 45 -50 95 -153 95 -196 0 -36
-40 -88 -104 -135 -50 -36 -66 -35 -93 6 -23 36 -111 86 -152 86 -52 0 -81
-60 -43 -92 9 -8 32 -21 50 -28 18 -7 42 -24 53 -38 19 -25 19 -25 -1 -47 -12
-12 -43 -34 -70 -49 l-48 -26 -30 25 c-46 38 -130 77 -152 70 -26 -8 -43 -41
-36 -68 4 -13 31 -37 67 -57 34 -20 62 -40 62 -45 0 -6 -25 -23 -57 -39 -57
-29 -58 -29 -139 -17 -45 7 -117 24 -161 39 -63 20 -82 32 -97 56 -27 44 -24
58 19 83 123 70 204 192 204 306 0 81 -17 121 -55 125 -51 6 -67 -20 -60 -97
5 -55 2 -74 -15 -108 -23 -44 -100 -116 -156 -147 l-34 -18 -54 28 -53 29 -11
65 c-13 78 -24 100 -80 163 -32 35 -45 60 -50 92 -3 25 -19 64 -34 89 l-28 44
81 32 c191 76 358 183 437 283 82 102 131 235 100 272 -26 31 -100 7 -100 -34
0 -27 -49 -123 -86 -168 -72 -88 -223 -183 -402 -253 -45 -18 -85 -30 -89 -26
-8 8 -23 364 -16 396 3 14 19 70 36 125 17 55 33 134 36 175 l6 74 108 28
c137 36 260 85 351 142 179 111 311 329 232 381 -37 24 -59 6 -101 -80 -67
-140 -191 -232 -408 -303 -67 -22 -136 -42 -152 -45 -31 -6 -31 -5 -45 61 -8
37 -15 103 -15 147 0 69 4 89 32 148 65 138 160 253 307 371 55 44 71 76 81
160 6 54 10 62 63 112 31 30 59 54 62 54 3 -1 30 -33 60 -72 169 -219 343
-338 492 -338 67 0 98 17 98 53 0 39 -29 57 -90 57 -107 0 -238 88 -376 252
-115 137 -154 202 -144 236 33 116 164 226 320 267 30 8 87 15 126 15 75 0
174 -24 174 -42 0 -35 34 -234 51 -296 22 -85 70 -184 104 -218 32 -32 70 -31
92 2 16 25 16 28 0 53 -69 107 -106 226 -127 403 -10 79 -9 91 9 125 42 83
100 112 226 114 39 0 79 4 90 9 35 15 40 11 82 -52z m574 -518 c10 -6 26 -24
34 -40 31 -60 79 -60 110 1 30 57 94 61 111 7 9 -32 34 -58 55 -58 10 0 34 14
53 31 29 25 41 29 66 24 43 -9 60 -39 53 -90 -4 -30 -1 -49 11 -68 34 -51 16
-270 -23 -281 -63 -20 -194 -30 -381 -30 -187 0 -318 10 -381 30 -39 11 -57
230 -23 281 12 19 15 38 10 69 -6 49 12 79 54 89 19 5 36 -2 64 -24 21 -17 46
-31 54 -31 20 0 52 29 52 47 0 16 35 53 51 53 6 0 19 -5 30 -10z m-1217 -963
c10 -56 80 -187 143 -269 34 -46 64 -96 71 -123 16 -61 70 -117 161 -168 42
-24 81 -53 88 -67 31 -61 4 -173 -47 -196 -14 -7 -47 -22 -74 -33 l-48 -22
-16 23 c-68 97 -155 154 -220 143 -33 -5 -41 -2 -67 25 -28 29 -30 38 -36 128
-6 92 -9 101 -62 203 l-55 107 35 33 c46 45 60 73 68 144 7 54 29 104 46 105
4 0 10 -15 13 -33z m2647 10 c9 -12 19 -49 24 -82 8 -71 22 -99 68 -144 l35
-33 -55 -107 c-53 -102 -56 -111 -62 -203 -6 -90 -8 -99 -36 -128 -26 -27 -34
-30 -71 -24 -66 10 -146 -44 -216 -144 l-16 -23 -48 22 c-27 11 -60 26 -74 33
-51 23 -78 135 -47 196 7 14 46 43 88 67 91 51 145 107 161 168 7 27 37 77 71
123 63 82 133 213 143 269 7 39 13 40 35 10z m-2229 -173 c156 -62 330 -80
453 -49 33 9 125 51 205 93 l145 77 85 0 85 0 145 -77 c167 -88 230 -108 350
-108 146 0 281 41 486 149 63 33 114 58 114 55 0 -17 -58 -112 -113 -185 -39
-54 -68 -104 -75 -132 -13 -50 -55 -93 -125 -128 -23 -12 -54 -30 -68 -40 -24
-17 -52 -19 -255 -22 -240 -3 -273 -9 -294 -48 -10 -18 -9 -26 8 -48 18 -23
25 -25 68 -21 27 3 126 5 219 5 l170 0 6 -75 c10 -119 59 -192 146 -220 76
-25 75 -23 42 -88 -41 -76 -38 -143 9 -201 l31 -38 -26 -64 c-30 -74 -33 -141
-9 -188 41 -78 148 -167 231 -191 59 -17 81 -56 121 -216 46 -185 63 -314 45
-357 -33 -80 -27 -98 74 -232 57 -76 70 -118 60 -189 -6 -38 -12 -46 -43 -60
-51 -22 -150 -36 -255 -36 -87 0 -88 0 -81 23 4 12 7 47 7 78 0 101 -69 188
-128 161 -32 -15 -34 -62 -5 -99 23 -29 27 -97 9 -137 -10 -21 -22 -26 -90
-36 -86 -12 -140 -4 -179 28 l-23 18 26 28 c52 55 75 189 40 228 -38 42 -93
11 -93 -53 0 -50 -22 -104 -48 -118 -51 -27 -139 1 -148 48 -3 16 -26 50 -51
76 -45 46 -45 46 -38 98 4 29 10 95 14 147 8 99 21 135 72 200 29 38 49 96 49
147 0 27 9 37 64 77 129 92 207 215 228 362 10 73 10 85 -5 108 -18 26 -50 34
-76 17 -8 -5 -20 -44 -27 -93 -18 -113 -59 -192 -135 -262 -33 -31 -63 -56
-67 -56 -4 0 -21 31 -39 69 -81 172 -235 271 -423 271 -186 0 -341 -99 -422
-270 -18 -38 -36 -69 -40 -69 -4 -1 -34 24 -67 55 -76 70 -117 150 -135 263
-8 47 -20 87 -27 92 -26 17 -58 9 -76 -17 -15 -23 -15 -35 -5 -108 21 -147 99
-270 228 -362 56 -40 64 -50 64 -78 0 -49 27 -130 51 -152 43 -38 62 -94 70
-199 4 -55 10 -121 14 -147 7 -46 6 -48 -38 -93 -25 -26 -48 -60 -51 -76 -9
-47 -97 -75 -148 -48 -26 14 -48 68 -48 118 0 64 -49 93 -92 54 -37 -33 -14
-172 38 -228 30 -33 22 -46 -41 -71 -38 -14 -54 -15 -128 -4 -74 10 -86 15
-96 36 -18 40 -14 108 9 137 29 37 27 84 -5 99 -36 16 -68 -2 -100 -57 -29
-48 -38 -121 -22 -179 l8 -29 -123 6 c-133 5 -211 19 -243 43 -16 12 -19 26
-19 88 l0 74 56 73 c104 137 110 156 77 236 -18 44 0 184 46 362 39 150 63
193 122 211 84 27 189 114 229 191 24 47 21 114 -9 188 l-26 64 31 38 c47 58
50 125 9 201 -33 65 -34 63 42 88 87 28 136 101 146 220 l6 75 170 0 c94 0
192 -2 219 -5 43 -4 50 -2 68 21 17 22 18 30 8 48 -21 39 -54 45 -294 48 -203
3 -231 5 -255 22 -14 10 -45 28 -68 40 -70 35 -112 78 -125 128 -7 28 -36 78
-75 132 -55 73 -113 168 -113 185 0 3 51 -22 114 -55 63 -33 143 -71 178 -85z
m-281 -701 c40 -42 149 -186 167 -220 16 -29 15 -58 -2 -72 -10 -9 -16 -9 -21
-1 -4 6 -25 25 -47 41 -51 37 -130 41 -171 9 -14 -11 -27 -20 -30 -20 -11 0
-50 72 -57 106 -5 20 -4 51 2 71 11 41 83 123 107 123 9 0 33 -17 52 -37z
m2441 0 c48 -51 60 -76 60 -129 0 -40 -41 -134 -58 -134 -3 0 -17 9 -31 20
-41 32 -120 28 -171 -9 -22 -16 -43 -35 -47 -41 -10 -16 -35 7 -35 34 0 50
191 296 230 296 9 0 32 -17 52 -37z"/>
<path d="M2117 4512 c-41 -45 -9 -202 52 -263 86 -86 216 -53 303 76 42 63 49
108 20 124 -24 13 -308 81 -337 81 -12 0 -29 -8 -38 -18z m190 -129 l66 -16
-27 -24 c-44 -38 -76 -41 -103 -9 -24 28 -31 66 -13 66 6 0 41 -7 77 -17z"/>
<path d="M2790 4494 c-74 -18 -145 -38 -157 -43 -75 -34 60 -226 173 -247 121
-23 214 83 214 241 0 60 -20 86 -66 84 -16 -1 -90 -16 -164 -35z m110 -113 c0
-11 -10 -32 -23 -47 -28 -32 -59 -29 -103 10 l-28 23 60 16 c81 21 94 21 94
-2z"/>
</g>
</svg>
